<svg xmlns="http://www.w3.org/2000/svg" viewBox="0 0 1024 1024">
  <defs>
    <!-- 背景グラデーション（Web版と同じ配色） -->
    <linearGradient id="bgGrad" x1="0%" y1="0%" x2="100%" y2="100%">
      <stop offset="0%" style="stop-color:#59B9C6;stop-opacity:1" />
      <stop offset="100%" style="stop-color:#667eea;stop-opacity:1" />
    </linearGradient>
    
    <!-- アイコン用シャドウ -->
    <filter id="iconShadow">
      <feDropShadow dx="0" dy="4" stdDeviation="8" flood-opacity="0.2"/>
    </filter>
  </defs>
  
  <!-- 背景円 -->
  <circle cx="512" cy="512" r="492" fill="url(#bgGrad)"/>
  
  <!-- 卒業帽アイコン（Web版のパスデータをスケールアップ） -->
  <g transform="translate(512, 512) scale(50)" filter="url(#iconShadow)">
    <!-- Web版と同じパス（viewBox 0 0 20 20 を基準） -->
    <path fill="#ffffff" d="M10.394 2.08a1 1 0 00-.788 0l-7 3a1 1 0 000 1.84L5.25 8.051a.999.999 0 01.356-.257l4-1.714a1 1 0 11.788 1.838L7.667 9.088l1.94.831a1 1 0 00.787 0l7-3a1 1 0 000-1.838l-7-3zM3.31 9.397L5 10.12v4.102a8.969 8.969 0 00-1.05-.174 1 1 0 01-.89-.89 11.115 11.115 0 01.25-3.762zM9.3 16.573A9.026 9.026 0 007 14.935v-3.957l1.818.78a3 3 0 002.364 0l5.508-2.361a11.026 11.026 0 01.25 3.762 1 1 0 01-.89.89 8.968 8.968 0 00-5.35 2.524 1 1 0 01-1.4 0zM6 18a1 1 0 001-1v-2.065a8.935 8.935 0 00-2-.712V17a1 1 0 001 1z" transform="translate(-10, -10)"/>
  </g>
  
  <!-- アクセント（紫の光点 - Web版のanimate-ping効果を静的に表現） -->
  <circle cx="820" cy="220" r="60" fill="#9333ea" opacity="0.6"/>
  <circle cx="820" cy="220" r="40" fill="#9333ea" opacity="0.8"/>
</svg>
