<svg xmlns="http://www.w3.org/2000/svg" viewBox="0 0 100 100">
  <!-- 背景グラデーション -->
  <defs>
    <linearGradient id="grad" x1="0%" y1="0%" x2="100%" y2="100%">
      <stop offset="0%" style="stop-color:#59B9C6;stop-opacity:1" />
      <stop offset="100%" style="stop-color:#667eea;stop-opacity:1" />
    </linearGradient>
  </defs>
  
  <!-- 背景円 -->
  <circle cx="50" cy="50" r="48" fill="url(#grad)"/>
  
  <!-- 卒業帽アイコン（白） -->
  <path fill="#ffffff" d="M50 20 L20 32 L20 50 C20 58 30 64 40 68 L40 44 L50 40 L80 50 L50 60 L35 54 L35 64 C40 66 45 67 50 67 C55 67 60 66 65 64 L65 54 L50 60 L20 50 L50 20 Z M25 35 L28 36.5 L28 48 C25 46 25 42 25 40 L25 35 Z"/>
  
  <!-- 紫のアクセント点 -->
  <circle cx="75" cy="25" r="6" fill="#9333ea" opacity="0.8"/>
</svg>